<svg height="384pt" viewBox="-48 0 384 384" width="384pt" xmlns="http://www.w3.org/2000/svg"><path d="m128 0v32.945312c-71.894531 7.992188-128 69.0625-128 143.054688v208h288v-208c0-73.992188-56.113281-135.0625-128-143.054688v-32.945312zm128 208v64h-48v-64zm-80 64h-64v-64h64zm0 32v48h-64v-48zm-96-32h-48v-64h48zm32.632812-96c3.3125-44.59375 19.664063-79.566406 31.40625-99.457031 11.738282 19.808593 28.050782 54.65625 31.335938 99.457031zm-1.089843-107.167969c-13.054688 24.113281-28.078125 61.054688-31.007813 107.167969h-48.535156c0-50.472656 33.566406-93.214844 79.542969-107.167969zm-79.542969 235.167969h48v48h-48zm176 48v-48h48v48zm48-176h-48.527344c-2.9375-46.113281-17.960937-83.054688-31.007812-107.167969 45.96875 13.960938 79.535156 56.695313 79.535156 107.167969zm0 0"/></svg>